<svg xmlns="http://www.w3.org/2000/svg" width="2151" height="696" viewBox="0 0 2151 696"><defs><style>.a{fill:#333;}.b{fill:#46e4ab;}.c{fill:#3ec08e;}.d{fill:#f36c82;}</style></defs><title>Resheba</title><path class="a" d="M657.3,456a10,10,0,0,1,1.6,4.8c0,2.3-2,3.4-6,3.4H624.1c-5.2,0-8.8-2.3-10.8-6.7l-24.6-52H575.6v52a5.9,5.9,0,0,1-2.3,4.8,8.7,8.7,0,0,1-5.4,1.9H544.6a8.9,8.9,0,0,1-5.4-1.9,6.2,6.2,0,0,1-2.3-4.8V313.2c0-4.4,2.6-6.7,7.7-6.7h54.7c15.7,0,28.5,4.8,38.7,14.3s15.1,21.6,15.1,36.2c0,12-3.8,22.2-11.5,30.8-3.1,3.4-7.8,6.9-14.2,10.6Zm-47.7-87.4a15,15,0,0,0,4.8-11.4,15.3,15.3,0,0,0-4.8-11.4,16.9,16.9,0,0,0-12.1-4.5H575.6v31.9h21.9A16.6,16.6,0,0,0,609.6,368.6Z"/><path class="a" d="M781.7,464.2H689a8,8,0,0,1-5.4-2,6.1,6.1,0,0,1-2.4-4.7V313.2a5.9,5.9,0,0,1,2.5-4.7,8.3,8.3,0,0,1,5.3-2h92.7a5.9,5.9,0,0,1,4.9,2.3,8.3,8.3,0,0,1,1.8,5.5v19a9.4,9.4,0,0,1-1.7,5.5,5.9,5.9,0,0,1-5,2.3H720v26.3h51.8q6.6,0,6.6,7.8v19a8.4,8.4,0,0,1-1.8,5.4,5.6,5.6,0,0,1-4.8,2.4H720v27.6h61.7a5.8,5.8,0,0,1,4.9,2.4,8.4,8.4,0,0,1,1.8,5.4v19a8.3,8.3,0,0,1-1.8,5.5A5.9,5.9,0,0,1,781.7,464.2Z"/><path class="a" d="M921.6,415c0,15.8-5.6,28.2-17,37.1s-27,13.4-46.9,13.4c-22.5,0-40.3-6.1-53.6-18.2a4.6,4.6,0,0,1-1.6-3.7,6.7,6.7,0,0,1,2-4.7l16.4-16.6a5.2,5.2,0,0,1,3.8-1.5,5.7,5.7,0,0,1,4,1.5c6.5,5.8,17.2,8.7,32.3,8.7s22.6-4.8,22.6-14.4c0-7.6-4.5-12-13.5-13.3L851,400.6c-28.3-4-42.5-18.9-42.5-44.9,0-15.7,5.3-28,16-37s25.1-13.5,43.6-13.5c20,0,35.9,5.3,47.6,15.7a5.7,5.7,0,0,1,1.5,4,7.1,7.1,0,0,1-1.5,4.4l-15.3,15.8a6.6,6.6,0,0,1-4.7,1.7c-1.9,0-3.2-.3-3.9-1.1-5.1-4.4-13-6.6-24-6.6-6.9,0-12.3,1.2-16.1,3.7a12.1,12.1,0,0,0-5.8,10.7c0,6.8,4.7,10.8,14,12.1l19,2.7c14.6,1.9,25.4,6.7,32.3,14.3S921.6,401,921.6,415Z"/><path class="a" d="M985.8,457.5a5.9,5.9,0,0,1-2.3,4.8,8.5,8.5,0,0,1-5.4,1.9H954.8a8.9,8.9,0,0,1-5.4-1.9,6.2,6.2,0,0,1-2.3-4.8V313.2c0-4.4,2.6-6.7,7.7-6.7h23.3c5.2,0,7.7,2.3,7.7,6.7v54H1027v-54c0-4.4,2.6-6.7,7.8-6.7H1058c5.2,0,7.8,2.3,7.8,6.7V457.5a6.2,6.2,0,0,1-2.3,4.8,8,8,0,0,1-5.3,1.9h-23.4a8.9,8.9,0,0,1-5.5-1.9,6.2,6.2,0,0,1-2.3-4.8V401.7H985.8Z"/><path class="a" d="M1198.1,464.2h-92.7a8,8,0,0,1-5.4-2,6.1,6.1,0,0,1-2.4-4.7V313.2a5.9,5.9,0,0,1,2.5-4.7,8.3,8.3,0,0,1,5.3-2h92.7a5.9,5.9,0,0,1,4.9,2.3,8.3,8.3,0,0,1,1.8,5.5v19a9.4,9.4,0,0,1-1.7,5.5,5.9,5.9,0,0,1-5,2.3h-61.7v26.3h51.8q6.6,0,6.6,7.8v19a8.4,8.4,0,0,1-1.8,5.4,5.6,5.6,0,0,1-4.8,2.4h-51.8v27.6h61.7a5.8,5.8,0,0,1,4.9,2.4,8.4,8.4,0,0,1,1.8,5.4v19a8.3,8.3,0,0,1-1.8,5.5A5.9,5.9,0,0,1,1198.1,464.2Z"/><path class="a" d="M1350,417.9c0,14-4.5,25.2-13.4,33.6s-20.8,12.7-35.8,12.7H1240a8.9,8.9,0,0,1-5.5-1.9,6.2,6.2,0,0,1-2.3-4.8V313.2c0-4.4,2.6-6.7,7.8-6.7h57.5c15.4,0,27.6,4,36.7,12s13.6,18.7,13.6,32.3-5.8,24.1-17.3,32.6c6.9,4.4,11.9,9.3,15,14.6S1350,409.9,1350,417.9Zm-44.6-54.4c2.4-2.2,3.6-5.4,3.6-9.4a12.5,12.5,0,0,0-3.6-9.4c-2.4-2.3-5.9-3.4-10.3-3.4H1271V367h24.1C1299.5,367,1303,365.8,1305.4,363.5Zm2.1,62.1a13.7,13.7,0,0,0,3.8-10.1c0-4.3-1.3-7.7-3.8-10.1s-6-3.7-10.4-3.7H1271v27.7h26.1C1301.5,429.4,1305,428.2,1307.5,425.6Z"/><path class="a" d="M1502.7,456.4a10,10,0,0,1,.7,3.6c0,2.8-2.1,4.2-6.4,4.2h-24.8c-3,0-5.1-.6-6.3-1.6a9.6,9.6,0,0,1-3-5.1l-5.3-16.8h-48.5l-5.5,16.8a11.1,11.1,0,0,1-3,5.1c-1.3,1-3.4,1.6-6.3,1.6h-24.8c-4.3,0-6.4-1.4-6.4-4.2a12.3,12.3,0,0,1,.6-3.6l52.9-145.2c1.2-3.1,3.9-4.7,8-4.7h17a12.3,12.3,0,0,1,5.4,1c1.1.7,2.2,2.2,3.1,4.6Zm-55.3-48-13.3-42.1-14.2,42.1Z"/><path class="b" d="M1582.9,441.1a23.2,23.2,0,0,1-6.7,16.9,22.7,22.7,0,0,1-16.5,6.8,23.3,23.3,0,1,1,16.3-39.7A21.6,21.6,0,0,1,1582.9,441.1Z"/><path class="b" d="M418.3,170H162a19.8,19.8,0,0,0-19.8,19.7V615a20.1,20.1,0,0,0,20,20h73.4a20,20,0,0,0,20-20V482a16,16,0,0,1,16-16H418.5a19.8,19.8,0,0,0,19.8-19.7V190A20,20,0,0,0,418.3,170Z"/><path class="c" d="M147.5,464.4l281.5-84a13.1,13.1,0,0,0,9.3-12.5V190a20,20,0,0,0-20-20H156.2a14,14,0,0,0-14,13.9V460.5A4.1,4.1,0,0,0,147.5,464.4Z"/><path class="b" d="M146.5,463.5,341.7,348.2a13,13,0,0,0,6.4-11.2V71.2a10,10,0,0,0-14.9-8.8L148.9,166.2a13.3,13.3,0,0,0-6.7,11.4V461.1A2.9,2.9,0,0,0,146.5,463.5Z"/><path class="d" d="M390,633.1,341,597l-49,36.1a5,5,0,0,1-8-4V509a16,16,0,0,1,16-16h82a16,16,0,0,1,16,16V629.1A5,5,0,0,1,390,633.1Z"/><path class="b" d="M1711.9,332.6a9.4,9.4,0,0,1-1.7,5.5,5.7,5.7,0,0,1-5,2.3H1673V457.2a5.9,5.9,0,0,1-2.3,4.8,8.9,8.9,0,0,1-5.4,1.9h-23.4a8.9,8.9,0,0,1-5.4-1.9,5.9,5.9,0,0,1-2.3-4.8V340.4H1602a5.7,5.7,0,0,1-5-2.3,9.4,9.4,0,0,1-1.7-5.5V313.5a8.5,8.5,0,0,1,1.8-5.5,5.9,5.9,0,0,1,4.9-2.2h103.2a5.9,5.9,0,0,1,4.9,2.2,8.5,8.5,0,0,1,1.8,5.5Z"/><path class="b" d="M1846.8,384.8c0,8.8-.1,14.7-.2,17.8s-.7,8-1.5,14.6a51.2,51.2,0,0,1-4.7,16.9,61.1,61.1,0,0,1-9.6,13.3q-16.8,17.9-44,17.8t-44.4-17.8a48.8,48.8,0,0,1-11.3-18.8c-2.5-7.4-3.9-13.5-4.2-18.4s-.5-11.8-.5-20.9v-10c0-15.6,1.1-27.4,3.4-35.5a49.7,49.7,0,0,1,12.6-21.6c11.3-11.8,25.9-17.8,44-17.8s33,6,44.4,17.8,16,27.3,16,48.6ZM1771.1,346c-3.9,5-5.8,15.7-5.8,32.2V389c0,18.1,1.9,29.6,5.8,34.5s9,7.1,15.5,7.1a19.3,19.3,0,0,0,15.6-7.1q5.7-7.3,5.7-34.5V378.2c0-16.5-1.9-27.2-5.7-32.2s-8.9-6.9-15.6-6.9S1774.8,341.4,1771.1,346Z"/><path class="b" d="M1975,320.1c10.2,9.5,15.3,21.7,15.3,36.5s-5.1,27-15.3,36.5-23,14.4-38.7,14.4h-23.8v49.7a5.9,5.9,0,0,1-2.3,4.8,8.9,8.9,0,0,1-5.4,1.9h-23.4a8.9,8.9,0,0,1-5.4-1.9,5.9,5.9,0,0,1-2.3-4.8V312.4c0-4.4,2.6-6.6,7.7-6.6h54.9C1952,305.8,1964.9,310.5,1975,320.1Zm-28.4,48a15.3,15.3,0,0,0,4.8-11.5,15,15,0,0,0-4.8-11.4,16.6,16.6,0,0,0-12.1-4.6h-22v32h22A16.9,16.9,0,0,0,1946.6,368.1Z"/></svg>